<svg
  width="204"
  height="54"
  viewBox="0 0 204 54"
  fill="none"
  xmlns="http://www.w3.org/2000/svg"
  role="img"
  aria-labelledby="paneliLogoTitle"
>
  <title id="paneliLogoTitle">Paneli</title>

  <defs>
    <linearGradient id="paneliPanelOne" x1="5" y1="7" x2="54" y2="18" gradientUnits="userSpaceOnUse">
      <stop stop-color="#F8F5FB"/>
      <stop offset="1" stop-color="#D7BBFF"/>
    </linearGradient>

    <linearGradient id="paneliPanelTwo" x1="8" y1="18" x2="57" y2="29" gradientUnits="userSpaceOnUse">
      <stop stop-color="#D7BBFF"/>
      <stop offset="1" stop-color="#C9A7F2"/>
    </linearGradient>

    <linearGradient id="paneliPanelThree" x1="11" y1="29" x2="60" y2="40" gradientUnits="userSpaceOnUse">
      <stop stop-color="#C9A7F2"/>
      <stop offset="1" stop-color="#9F73D2"/>
    </linearGradient>

    <linearGradient id="paneliPanelFour" x1="14" y1="40" x2="63" y2="51" gradientUnits="userSpaceOnUse">
      <stop stop-color="#A6D8F4"/>
      <stop offset="1" stop-color="#8FC8E8"/>
    </linearGradient>

    <linearGradient id="paneliTextGradient" x1="78" y1="18" x2="194" y2="44" gradientUnits="userSpaceOnUse">
      <stop offset="0" stop-color="#FFFFFF"/>
      <stop offset="0.56" stop-color="#F8F5FB"/>
      <stop offset="1" stop-color="#D7BBFF"/>
    </linearGradient>

    <filter id="paneliSoftShadow" x="-12" y="-8" width="90" height="78" filterUnits="userSpaceOnUse" color-interpolation-filters="sRGB">
      <feDropShadow dx="0" dy="10" stdDeviation="10" flood-color="#0A0410" flood-opacity="0.32"/>
    </filter>
  </defs>

  <g class="paneli-logo__mark" filter="url(#paneliSoftShadow)">
    <path
      d="M6.5 8.5H47.7C50.2 8.5 52.3 10.3 52.8 12.7L53.1 14.3C53.3 15.6 52.3 16.8 51 16.8H4.7C3.4 16.8 2.4 15.6 2.7 14.3L3 12.7C3.5 10.3 4 8.5 6.5 8.5Z"
      fill="url(#paneliPanelOne)"
      transform="skewX(-8)"
    />

    <path
      d="M9.8 19.1H51C53.5 19.1 55.6 20.9 56.1 23.3L56.4 24.9C56.6 26.2 55.6 27.4 54.3 27.4H8C6.7 27.4 5.7 26.2 6 24.9L6.3 23.3C6.8 20.9 7.3 19.1 9.8 19.1Z"
      fill="url(#paneliPanelTwo)"
      transform="skewX(-8)"
    />

    <path
      d="M13.1 29.7H54.3C56.8 29.7 58.9 31.5 59.4 33.9L59.7 35.5C59.9 36.8 58.9 38 57.6 38H11.3C10 38 9 36.8 9.3 35.5L9.6 33.9C10.1 31.5 10.6 29.7 13.1 29.7Z"
      fill="url(#paneliPanelThree)"
      transform="skewX(-8)"
    />

    <path
      d="M16.4 40.3H57.6C60.1 40.3 62.2 42.1 62.7 44.5L63 46.1C63.2 47.4 62.2 48.6 60.9 48.6H14.6C13.3 48.6 12.3 47.4 12.6 46.1L12.9 44.5C13.4 42.1 13.9 40.3 16.4 40.3Z"
      fill="url(#paneliPanelFour)"
      transform="skewX(-8)"
    />

    <path
      d="M8 17.6H51.4"
      stroke="#1B1022"
      stroke-opacity="0.42"
      stroke-width="1"
      stroke-linecap="round"
    />

    <path
      d="M11.3 28.2H54.7"
      stroke="#1B1022"
      stroke-opacity="0.42"
      stroke-width="1"
      stroke-linecap="round"
    />

    <path
      d="M14.6 38.8H58"
      stroke="#1B1022"
      stroke-opacity="0.42"
      stroke-width="1"
      stroke-linecap="round"
    />
  </g>

  <g class="paneli-logo__word">
  <text
    x="78"
    y="42"
    fill="url(#paneliTextGradient)"
    font-family="Manrope, Inter, Arial, sans-serif"
    font-size="31"
    font-weight="800"
    letter-spacing="-1.1"
  >
    Paneli
  </text>
</g>

<style>
  .paneli-logo__mark {
    transform-origin: 32px 28px;
    transition: transform 220ms ease, filter 220ms ease;
  }

  .paneli-logo__word text {
    transition: fill 220ms ease, opacity 220ms ease;
  }

  svg:hover .paneli-logo__mark {
    transform: translateX(1.5px);
    filter: drop-shadow(0 0 12px rgba(201, 167, 242, 0.28));
  }

  svg:hover .paneli-logo__word text {
    fill: #C9A7F2;
  }

  @media (prefers-reduced-motion: reduce) {
    .paneli-logo__mark,
    .paneli-logo__word text {
      transition: none;
    }

    svg:hover .paneli-logo__mark {
      transform: none;
    }
  }
</style>
</svg>